<mxfile host="app.diagrams.net" modified="2023-09-04T08:00:17.186Z" agent="Mozilla/5.0 (Windows NT 10.0; Win64; x64) AppleWebKit/537.36 (KHTML, like Gecko) Chrome/116.0.0.0 Safari/537.36" etag="0u8_BXk6RUBZ3rdpQBYe" version="21.6.9" type="device">
  <diagram name="Seite-1" id="yYaWQzanLlNQqHiQ1r1V">
    <mxGraphModel dx="2074" dy="1110" grid="1" gridSize="10" guides="1" tooltips="1" connect="1" arrows="1" fold="1" page="1" pageScale="1" pageWidth="827" pageHeight="1169" math="0" shadow="0">
      <root>
        <mxCell id="0" />
        <mxCell id="1" parent="0" />
        <mxCell id="KLnkPSvsm4qezIHDfTAo-1" value="" style="rounded=1;whiteSpace=wrap;html=1;fillColor=#6d8764;fontColor=#ffffff;strokeColor=#3A5431;" vertex="1" parent="1">
          <mxGeometry x="350" y="480" width="120" height="120" as="geometry" />
        </mxCell>
        <mxCell id="KLnkPSvsm4qezIHDfTAo-2" value="STEP" style="text;html=1;strokeColor=none;fillColor=none;align=center;verticalAlign=middle;whiteSpace=wrap;rounded=0;fontSize=36;fontStyle=1" vertex="1" parent="1">
          <mxGeometry x="380" y="525" width="60" height="30" as="geometry" />
        </mxCell>
      </root>
    </mxGraphModel>
  </diagram>
</mxfile>
